<?xml version="1.0" encoding="UTF-8"?>
<svg id="Layer_2" data-name="Layer 2" xmlns="http://www.w3.org/2000/svg" viewBox="0 0 194.24 43.93">
  <defs>
    <style>
      .cls-1 {
        stroke-width: 0px;
      }

      .cls-1, .cls-2 {
        fill: #fff;
      }

      .cls-2 {
        stroke: #fff;
        stroke-miterlimit: 10;
      }
    </style>
  </defs>
  <g id="katman_1" data-name="katman 1">
    <g>
      <g>
        <path class="cls-2" d="M51.11,30.5c-1.13-.95-1.81-2.23-2.05-3.83-.14-1.22-.22-2.62-.22-4.18,0-1.22.07-2.6.22-4.14.22-1.56.9-2.82,2.05-3.78,1.15-.96,2.58-1.44,4.28-1.44s3.14.46,4.3,1.37c1.16.91,1.84,2.05,2.03,3.42l.11.76v.07c0,.1-.03.17-.09.23s-.14.09-.23.09l-1.84.11c-.22,0-.35-.11-.4-.32,0-.22-.01-.36-.04-.43-.12-.84-.53-1.56-1.24-2.16-.71-.6-1.58-.9-2.61-.9s-1.93.32-2.61.97c-.68.65-1.09,1.49-1.21,2.52-.12,1.03-.18,2.26-.18,3.67s.06,2.68.18,3.71c.12,1.06.52,1.9,1.21,2.52.68.62,1.55.94,2.61.94s1.94-.3,2.65-.9,1.11-1.33,1.21-2.2l.04-.29c.05-.26.18-.37.4-.32l1.8.14c.22.05.32.16.32.32v.14c0,.1-.02.24-.07.43-.17,1.42-.83,2.59-2,3.51-1.17.92-2.61,1.39-4.34,1.39s-3.16-.47-4.28-1.42Z"/>
        <path class="cls-2" d="M73.48,28.99c.66-.47,1.13-1.1,1.42-1.89.07-.22.22-.3.43-.25l1.66.32c.12.02.2.08.23.16s.04.17.02.27c-.41,1.34-1.15,2.4-2.23,3.17-1.08.77-2.39,1.15-3.92,1.15-1.75,0-3.18-.46-4.28-1.39-1.1-.92-1.79-2.18-2.05-3.76-.1-.6-.16-1.31-.18-2.12-.02-.82-.04-1.49-.04-2.03v-1.13c0-1.22.05-2.22.14-2.99.19-1.61.86-2.9,2-3.89,1.14-.98,2.57-1.48,4.3-1.48,1.85,0,3.35.53,4.5,1.58,1.15,1.06,1.8,2.45,1.94,4.18.07.79.11,2.24.11,4.36,0,.24-.12.36-.36.36h-9.94c-.1,0-.14.05-.14.14,0,.74.02,1.57.07,2.48.12,1.03.53,1.87,1.24,2.5.71.64,1.61.95,2.72.95.91,0,1.7-.23,2.36-.7ZM68.37,16.32c-.68.64-1.09,1.47-1.21,2.5-.05,1.01-.07,1.85-.07,2.52,0,.1.05.14.14.14h7.6c.1,0,.14-.05.14-.14,0-.7-.05-1.52-.14-2.48-.12-1.03-.52-1.87-1.21-2.52-.68-.65-1.55-.97-2.61-.97s-1.96.32-2.65.95Z"/>
        <path class="cls-2" d="M81.67,30.48c-1.13-.89-1.69-2.03-1.69-3.42v-.32c0-.24.12-.36.36-.36h1.76c.24,0,.36.12.36.36v.25c0,.77.34,1.43,1.03,2,.68.56,1.57.85,2.65.85s1.91-.28,2.56-.83c.65-.55.97-1.25.97-2.09,0-.6-.18-1.1-.54-1.51s-.8-.73-1.33-.97c-.53-.24-1.26-.52-2.2-.83-1.13-.38-2.06-.77-2.81-1.15-.74-.38-1.37-.92-1.89-1.6-.52-.68-.77-1.55-.77-2.61,0-1.54.54-2.75,1.62-3.65,1.08-.9,2.51-1.35,4.28-1.35s3.28.47,4.37,1.4c1.09.94,1.64,2.14,1.64,3.6v.07c0,.24-.12.36-.36.36h-1.66c-.24,0-.36-.12-.36-.36v-.14c0-.82-.33-1.49-.99-2.03s-1.54-.81-2.65-.81c-1.03,0-1.87.26-2.5.77-.64.52-.95,1.18-.95,2s.32,1.48.95,1.91c.63.43,1.64.89,3.01,1.37,1.18.38,2.15.77,2.92,1.15.77.38,1.42.92,1.96,1.6.54.68.81,1.57.81,2.65,0,1.54-.55,2.76-1.66,3.67-1.1.91-2.58,1.37-4.43,1.37s-3.34-.44-4.46-1.33Z"/>
        <path class="cls-2" d="M99.49,9.42c-.43.6-.65,1.58-.65,2.95v.9c0,.1.05.14.14.14h3.38c.24,0,.36.12.36.36v1.4c0,.24-.12.36-.36.36h-3.38c-.1,0-.14.05-.14.14v15.59c0,.24-.12.36-.36.36h-1.84c-.24,0-.36-.12-.36-.36v-15.59c0-.1-.05-.14-.14-.14h-1.91c-.24,0-.36-.12-.36-.36v-1.4c0-.24.12-.36.36-.36h1.91c.1,0,.14-.05.14-.14v-1.01c0-2.14.4-3.66,1.21-4.57.8-.91,2.2-1.37,4.19-1.37h.76c.24,0,.36.12.36.36v1.48c0,.24-.12.36-.36.36h-.65c-1.1,0-1.87.3-2.3.9Z"/>
        <path class="cls-2" d="M106.77,30.5c-1.13-.95-1.81-2.23-2.05-3.83-.14-1.2-.22-2.59-.22-4.18s.07-2.95.22-4.1c.22-1.58.89-2.86,2.03-3.82,1.14-.96,2.59-1.44,4.34-1.44s3.2.48,4.34,1.44c1.14.96,1.82,2.23,2.03,3.82.14.96.22,2.33.22,4.1s-.07,3.22-.22,4.18c-.22,1.61-.89,2.89-2.03,3.83s-2.59,1.42-4.34,1.42-3.19-.47-4.32-1.42ZM113.7,28.73c.71-.63,1.13-1.48,1.28-2.54.1-.89.14-2.11.14-3.67s-.05-2.81-.14-3.67c-.12-1.06-.54-1.9-1.24-2.54-.71-.64-1.59-.95-2.65-.95s-1.93.32-2.63.95c-.7.64-1.12,1.48-1.26,2.54-.1.86-.14,2.09-.14,3.67s.05,2.81.14,3.67c.12,1.06.53,1.9,1.24,2.54.71.64,1.59.95,2.65.95s1.9-.32,2.61-.95Z"/>
        <path class="cls-2" d="M129.95,13.67c.17.07.23.22.18.43l-.43,1.87c-.02.24-.17.31-.43.22-.38-.17-.8-.25-1.26-.25l-.43.04c-1.06.02-1.93.48-2.63,1.37-.7.89-1.04,1.97-1.04,3.24v10.69c0,.24-.12.36-.36.36h-1.84c-.24,0-.36-.12-.36-.36V13.78c0-.24.12-.36.36-.36h1.84c.24,0,.36.12.36.36v2.34c0,.07.02.11.05.11s.07-.02.09-.07c.41-.91.95-1.62,1.64-2.14.68-.52,1.49-.77,2.43-.77.72,0,1.33.14,1.84.43Z"/>
        <path class="cls-2" d="M152.61,14.77c.92,1.07,1.39,2.54,1.39,4.41v12.1c0,.24-.12.36-.36.36h-1.8c-.24,0-.36-.12-.36-.36v-11.74c0-1.27-.32-2.28-.95-3.02-.64-.74-1.47-1.12-2.5-1.12s-1.95.37-2.61,1.1-.99,1.72-.99,2.97v11.81c0,.24-.12.36-.36.36h-1.84c-.24,0-.36-.12-.36-.36v-11.74c0-1.27-.32-2.28-.95-3.02-.64-.74-1.47-1.12-2.5-1.12s-1.94.37-2.59,1.1c-.65.73-.97,1.72-.97,2.97v11.81c0,.24-.12.36-.36.36h-1.84c-.24,0-.36-.12-.36-.36V13.78c0-.24.12-.36.36-.36h1.84c.24,0,.36.12.36.36v1.26s.02.08.05.09c.04.01.08,0,.13-.05.48-.65,1.09-1.13,1.84-1.44.74-.31,1.54-.47,2.38-.47,1.06,0,1.98.24,2.77.72.79.48,1.39,1.15,1.8,2.02.05.12.11.12.18,0,.48-.94,1.15-1.62,2-2.07s1.79-.67,2.83-.67c1.61,0,2.87.53,3.8,1.6Z"/>
        <path class="cls-2" d="M157.36,9.53c-.37-.38-.56-.86-.56-1.44s.19-1.09.56-1.46.86-.56,1.46-.56,1.06.19,1.44.56c.38.37.58.86.58,1.46s-.19,1.06-.58,1.44c-.38.38-.86.58-1.44.58s-1.09-.19-1.46-.58ZM157.56,31.27V13.78c0-.24.12-.36.36-.36h1.84c.24,0,.36.12.36.36v17.5c0,.24-.12.36-.36.36h-1.84c-.24,0-.36-.12-.36-.36Z"/>
        <path class="cls-2" d="M174.89,14.77c.97,1.07,1.46,2.53,1.46,4.37v12.13c0,.24-.12.36-.36.36h-1.84c-.24,0-.36-.12-.36-.36v-11.77c0-1.25-.32-2.24-.97-2.99-.65-.74-1.54-1.12-2.66-1.12s-2.03.38-2.72,1.13c-.68.76-1.03,1.77-1.03,3.04v11.7c0,.24-.12.36-.36.36h-1.84c-.24,0-.36-.12-.36-.36V13.78c0-.24.12-.36.36-.36h1.84c.24,0,.36.12.36.36v1.4s.02.08.05.11c.04.02.08.01.13-.04.94-1.39,2.38-2.09,4.32-2.09,1.68,0,3.01.53,3.98,1.6Z"/>
        <path class="cls-2" d="M190.36,6.43h1.84c.24,0,.36.12.36.36v24.48c0,.24-.12.36-.36.36h-1.84c-.24,0-.36-.12-.36-.36v-1.44c0-.07-.02-.11-.05-.11s-.08.02-.13.07c-.89,1.42-2.28,2.12-4.18,2.12-1.51,0-2.72-.4-3.62-1.21-.9-.8-1.57-2.08-2-3.83-.31-1.32-.47-2.71-.47-4.18,0-1.68.13-3.11.4-4.28.36-1.8,1.03-3.13,2-3.98.97-.85,2.26-1.28,3.87-1.28,1.01,0,1.83.17,2.47.52.64.35,1.15.87,1.53,1.57.02.07.06.1.11.09.05-.01.07-.05.07-.13V6.79c0-.24.12-.36.36-.36ZM189.93,22.52c0-1.97-.19-3.52-.58-4.64-.29-.82-.68-1.44-1.17-1.87-.49-.43-1.15-.65-1.96-.65-1.58,0-2.71.82-3.38,2.45-.46,1.2-.68,2.77-.68,4.72s.19,3.44.58,4.5c.31.89.74,1.56,1.28,2.02.54.46,1.27.68,2.18.68.84,0,1.51-.23,2.02-.68s.9-1.12,1.19-1.98c.36-1.08.54-2.59.54-4.54Z"/>
      </g>
      <g>
        <path class="cls-1" d="M30.57,31.88c-2.33,1.94-5.33,3.1-8.6,3.1-7.44,0-13.47-6.03-13.47-13.47s6.03-13.47,13.47-13.47c3.16,0,6.06,1.09,8.36,2.91.03-.02.11-.05.11-.05,0,0,5.58-5.04,6.05-5.41-3.87-3.41-8.95-5.49-14.52-5.49C9.84,0,0,9.84,0,21.97s9.84,21.97,21.97,21.97c6.11,0,11.63-2.5,15.62-6.52-2.18-1.83-4.55-3.6-7.01-5.53Z"/>
        <g>
          <path class="cls-1" d="M36.4,32.78c.23-.14.37-.35.42-.59l1.76-.08c.05.09.13.17.23.23.28.16.64.05.79-.23.16-.28.05-.64-.23-.79-.28-.16-.64-.05-.79.23-.02.04-.04.08-.05.11l-1.73.07c-.02-.08-.05-.15-.1-.22-.22-.36-.65-.52-1.04-.41l-.75-1.32c.05-.05.09-.11.13-.17.04-.07.07-.15.08-.23l1.61-.16c.07.2.22.38.42.49.44.24.99.07,1.23-.37.2-.37.11-.83-.19-1.1l.89-1.83c.21.04.43.03.62-.04l.68,1.42c-.4.29-.66.77-.64,1.3.03.84.75,1.5,1.59,1.47s1.5-.75,1.47-1.59c-.02-.52-.3-.97-.71-1.23l.61-1.47c.5.08,1.01-.16,1.26-.63.31-.59.09-1.32-.51-1.63-.59-.31-1.32-.09-1.63.51-.3.57-.1,1.27.45,1.6l-.6,1.44c-.15-.04-.31-.06-.47-.05-.15,0-.29.03-.43.08l-.69-1.43c.12-.1.22-.22.29-.36.31-.59.09-1.32-.51-1.63-.59-.31-1.32-.09-1.63.51-.29.56-.11,1.24.41,1.57l-.87,1.79c-.39-.09-.81.08-1.01.45-.05.09-.08.19-.1.29l-1.61.16c-.07-.17-.19-.31-.36-.4-.39-.21-.87-.07-1.09.32-.21.39-.07.87.32,1.09.18.1.38.12.57.08l.75,1.32c-.3.29-.38.77-.15,1.14.26.44.83.58,1.27.31Z"/>
          <path class="cls-1" d="M39.88,31.76c-.18-.42-.65-.63-1.08-.5,0,0-.19.03-.39.24s-.32.63-.18.97c.03.07.07.14.12.2l-1.08,1.51c-.19-.06-.39-.06-.59.02-.2.09-.34.25-.42.43l-1.74-.17s-.02-.09-.04-.14c-.14-.31-.5-.45-.81-.31-.31.14-.45.5-.31.81.14.31.5.45.81.31.11-.05.2-.13.26-.22l1.79.17c.01.06.03.12.05.17.18.4.65.59,1.06.41.4-.18.59-.65.41-1.06-.03-.06-.06-.12-.1-.17l1.07-1.5c.22.09.46.09.7,0,.45-.2.66-.72.47-1.17Z"/>
          <path class="cls-1" d="M41.4,21.03c-.18-.21-.42-.31-.68-.31l-.43-1.56c.32-.15.59-.43.72-.79.25-.72-.12-1.5-.84-1.76-.68-.24-1.41.08-1.71.72l-1.41-.38c0-.17-.04-.34-.13-.49l1.13-1.16c.16.09.35.12.55.08.43-.09.71-.51.62-.94-.09-.43-.51-.71-.94-.62-.19.04-.35.14-.46.28l-1.37-.48s.02-.06.01-.09c-.02-.54-.48-.95-1.01-.93-.08,0-.15.02-.22.04l-.58-1.03c.08-.07.14-.15.19-.25.19-.35.13-.77-.13-1.05l.67-1.06c.06.01.12.02.18.02.29-.01.53-.23.59-.5h1.19c.03.1.07.21.14.31.3.46.92.59,1.38.28s.59-.92.28-1.38c-.26-.39-.74-.54-1.16-.39l-.93-1.45c.05-.09.08-.2.07-.31-.02-.31-.29-.55-.6-.54-.31.02-.55.29-.54.6.02.31.29.55.6.54.04,0,.07,0,.1-.02l.91,1.42c-.13.13-.22.3-.26.47h-1.25c-.11-.19-.33-.32-.58-.31-.35.02-.62.31-.61.67,0,.12.05.23.11.33l-.67,1.07c-.42-.15-.9.02-1.12.43-.05.09-.08.19-.1.28l-2.2.06c-.11-.36-.45-.61-.84-.59-.47.02-.83.41-.81.88.02.47.41.83.88.81.38-.02.7-.29.78-.64l2.22-.06c.07.21.22.4.43.51.21.11.44.13.65.08l.58,1.04c-.2.19-.32.46-.31.75.02.54.48.95,1.01.93.34-.01.62-.21.78-.48l1.33.47c0,.08,0,.16.01.24.02.08.04.15.08.22l-1.13,1.17c-.32-.18-.73-.16-1.03.09-.39.32-.44.89-.12,1.28.32.39.89.44,1.28.12.09-.07.15-.16.21-.25l1.41.38c-.06.62.3,1.22.91,1.44.2.07.4.09.6.07l.43,1.55s-.1.06-.14.1c-.37.32-.42.88-.1,1.26.32.37.88.42,1.26.1.37-.32.42-.88.1-1.26Z"/>
        </g>
      </g>
      <g>
        <path class="cls-1" d="M50.55,41.54l-.75,2.12h-.44l2.19-6.07h.42l2.19,6.07h-.44l-.76-2.12h-2.4ZM52.82,41.18l-.74-2.03c-.15-.42-.23-.72-.32-1.07h-.02c-.09.35-.18.67-.32,1.05l-.74,2.05h2.14Z"/>
        <path class="cls-1" d="M56.19,37.6v6.07h-.43v-6.07h.43Z"/>
        <path class="cls-1" d="M60.02,41v.38h-2.14v-.38h2.14Z"/>
        <path class="cls-1" d="M61.7,37.67c.35-.07.79-.12,1.3-.12.72,0,1.27.19,1.6.51.29.28.47.68.47,1.19s-.15.91-.42,1.21c-.39.45-1.04.68-1.78.68-.27,0-.52,0-.74-.07v2.6h-.43v-6ZM62.13,40.69c.21.06.48.09.77.09,1.09,0,1.74-.53,1.74-1.49s-.69-1.38-1.65-1.38c-.39,0-.69.04-.85.07v2.71Z"/>
        <path class="cls-1" d="M71.86,40.57c0,2.14-1.31,3.19-2.72,3.19-1.49,0-2.65-1.17-2.65-3.07s1.2-3.19,2.72-3.19,2.64,1.19,2.64,3.07ZM66.94,40.68c0,1.37.79,2.73,2.23,2.73s2.24-1.31,2.24-2.81c0-1.28-.7-2.74-2.23-2.74s-2.25,1.4-2.25,2.82Z"/>
        <path class="cls-1" d="M74.67,43.66l-1.6-6.07h.44l.88,3.42c.2.78.39,1.51.5,2.08h.02c.1-.57.32-1.29.55-2.09l1-3.42h.42l.9,3.39c.19.74.39,1.49.49,2.11h.02c.14-.66.33-1.32.55-2.09l.99-3.42h.44l-1.82,6.07h-.41l-.92-3.49c-.24-.89-.38-1.49-.47-2.06h-.02c-.1.56-.27,1.16-.54,2.05l-1.03,3.5h-.41Z"/>
        <path class="cls-1" d="M84.59,40.65h-2.43v2.65h2.71v.36h-3.14v-6.07h3v.36h-2.57v2.33h2.43v.36Z"/>
        <path class="cls-1" d="M86.6,37.68c.37-.08.89-.13,1.31-.13.79,0,1.29.17,1.63.51.26.25.42.66.42,1.08,0,.81-.48,1.34-1.19,1.58v.02c.49.16.79.62.94,1.29.21.95.33,1.4.45,1.64h-.45c-.1-.18-.23-.71-.39-1.48-.19-.88-.56-1.27-1.36-1.31h-.95v2.78h-.43v-5.98ZM87.03,40.54h.96c.94,0,1.54-.52,1.54-1.32,0-.93-.68-1.31-1.63-1.31-.41,0-.72.04-.87.08v2.55Z"/>
        <path class="cls-1" d="M94.68,40.65h-2.43v2.65h2.71v.36h-3.14v-6.07h3v.36h-2.57v2.33h2.43v.36Z"/>
        <path class="cls-1" d="M96.69,37.68c.47-.08.98-.13,1.56-.13,1.1,0,1.94.3,2.44.83.49.5.76,1.18.76,2.1s-.24,1.7-.79,2.3c-.53.59-1.45.93-2.62.93-.47,0-.91,0-1.34-.05v-5.98ZM97.12,43.3c.25.04.6.05.98.05,1.95,0,2.91-1.09,2.91-2.85.01-1.54-.84-2.59-2.79-2.59-.47,0-.84.04-1.1.1v5.3Z"/>
        <path class="cls-1" d="M105.83,37.68c.34-.08.77-.13,1.22-.13.76,0,1.25.16,1.59.5.25.25.37.57.37,1,0,.62-.44,1.14-1.04,1.35v.02c.51.11,1.28.56,1.28,1.54,0,.5-.18.88-.45,1.16-.4.41-1.05.58-1.92.58-.46,0-.82-.03-1.05-.05v-5.98ZM106.26,40.27h.89c.88,0,1.43-.52,1.43-1.19,0-.85-.65-1.16-1.55-1.16-.4,0-.63.03-.77.07v2.29ZM106.26,43.3c.18.04.43.05.74.05.93,0,1.8-.33,1.8-1.37,0-.96-.82-1.37-1.78-1.37h-.77v2.69Z"/>
        <path class="cls-1" d="M111.49,37.6v3.66c0,1.54.72,2.14,1.62,2.14,1,0,1.7-.65,1.7-2.14v-3.66h.43v3.62c0,1.86-1,2.54-2.15,2.54-1.06,0-2.02-.62-2.02-2.48v-3.69h.43Z"/>
        <path class="cls-1" d="M117.18,42.99c.34.23.82.4,1.33.4.91,0,1.46-.52,1.46-1.26,0-.68-.35-1.08-1.23-1.42-.98-.35-1.56-.85-1.56-1.67,0-.89.73-1.54,1.76-1.54.57,0,1,.15,1.21.29l-.17.36c-.16-.11-.55-.29-1.07-.29-.98,0-1.31.63-1.31,1.11,0,.67.39,1.02,1.26,1.36,1,.41,1.53.86,1.53,1.77s-.63,1.67-1.92,1.67c-.52,0-1.13-.17-1.45-.41l.16-.36Z"/>
        <path class="cls-1" d="M122.65,37.6v6.07h-.43v-6.07h.43Z"/>
        <path class="cls-1" d="M124.8,43.66v-6.07h.41l2.37,3.59c.49.76.84,1.32,1.14,1.91h.02c-.06-.83-.07-1.52-.07-2.48v-3.02h.42v6.07h-.4l-2.32-3.53c-.45-.7-.87-1.33-1.17-1.96h-.02c.05.76.06,1.41.06,2.42v3.07h-.42Z"/>
        <path class="cls-1" d="M134.07,40.65h-2.43v2.65h2.71v.36h-3.14v-6.07h3v.36h-2.57v2.33h2.43v.36Z"/>
        <path class="cls-1" d="M135.89,42.99c.34.23.82.4,1.33.4.91,0,1.46-.52,1.46-1.26,0-.68-.35-1.08-1.23-1.42-.98-.35-1.56-.85-1.56-1.67,0-.89.73-1.54,1.76-1.54.57,0,1,.15,1.21.29l-.17.36c-.16-.11-.55-.29-1.07-.29-.98,0-1.31.63-1.31,1.11,0,.67.39,1.02,1.26,1.36,1,.41,1.53.86,1.53,1.77s-.63,1.67-1.92,1.67c-.52,0-1.13-.17-1.45-.41l.16-.36Z"/>
        <path class="cls-1" d="M140.74,42.99c.34.23.82.4,1.33.4.91,0,1.46-.52,1.46-1.26,0-.68-.35-1.08-1.23-1.42-.98-.35-1.56-.85-1.56-1.67,0-.89.73-1.54,1.76-1.54.57,0,1,.15,1.21.29l-.17.36c-.16-.11-.55-.29-1.07-.29-.98,0-1.31.63-1.31,1.11,0,.67.39,1.02,1.26,1.36,1,.41,1.53.86,1.53,1.77s-.63,1.67-1.92,1.67c-.52,0-1.13-.17-1.45-.41l.16-.36Z"/>
        <path class="cls-1" d="M148.24,42.99c.34.23.82.4,1.33.4.91,0,1.46-.52,1.46-1.26,0-.68-.35-1.08-1.23-1.42-.98-.35-1.56-.85-1.56-1.67,0-.89.73-1.54,1.76-1.54.57,0,1,.15,1.21.29l-.17.36c-.16-.11-.55-.29-1.07-.29-.98,0-1.31.63-1.31,1.11,0,.67.39,1.02,1.26,1.36,1,.41,1.53.86,1.53,1.77s-.63,1.67-1.92,1.67c-.52,0-1.13-.17-1.45-.41l.16-.36Z"/>
        <path class="cls-1" d="M158.25,40.57c0,2.14-1.31,3.19-2.72,3.19-1.49,0-2.65-1.17-2.65-3.07s1.2-3.19,2.72-3.19,2.64,1.19,2.64,3.07ZM153.33,40.68c0,1.37.79,2.73,2.23,2.73s2.24-1.31,2.24-2.81c0-1.28-.7-2.74-2.23-2.74s-2.25,1.4-2.25,2.82Z"/>
        <path class="cls-1" d="M159.99,37.6h.43v5.71h2.71v.36h-3.13v-6.07Z"/>
        <path class="cls-1" d="M164.77,37.6v3.66c0,1.54.72,2.14,1.62,2.14,1,0,1.7-.65,1.7-2.14v-3.66h.43v3.62c0,1.86-1,2.54-2.15,2.54-1.06,0-2.02-.62-2.02-2.48v-3.69h.43Z"/>
        <path class="cls-1" d="M171.8,37.96h-1.98v-.36h4.38v.36h-1.98v5.71h-.43v-5.71Z"/>
        <path class="cls-1" d="M175.94,37.6v6.07h-.43v-6.07h.43Z"/>
        <path class="cls-1" d="M183.05,40.57c0,2.14-1.31,3.19-2.72,3.19-1.49,0-2.65-1.17-2.65-3.07s1.2-3.19,2.72-3.19,2.64,1.19,2.64,3.07ZM178.13,40.68c0,1.37.79,2.73,2.23,2.73s2.24-1.31,2.24-2.81c0-1.28-.7-2.74-2.23-2.74s-2.25,1.4-2.25,2.82Z"/>
        <path class="cls-1" d="M184.8,43.66v-6.07h.41l2.37,3.59c.49.76.84,1.32,1.14,1.91h.02c-.06-.83-.07-1.52-.07-2.48v-3.02h.42v6.07h-.4l-2.32-3.53c-.45-.7-.87-1.33-1.17-1.96h-.02c.05.76.06,1.41.06,2.42v3.07h-.42Z"/>
        <path class="cls-1" d="M191.02,42.99c.34.23.82.4,1.33.4.91,0,1.46-.52,1.46-1.26,0-.68-.35-1.08-1.23-1.42-.98-.35-1.56-.85-1.56-1.67,0-.89.73-1.54,1.76-1.54.57,0,1,.15,1.21.29l-.17.36c-.16-.11-.55-.29-1.07-.29-.98,0-1.31.63-1.31,1.11,0,.67.39,1.02,1.26,1.36,1,.41,1.53.86,1.53,1.77s-.63,1.67-1.92,1.67c-.52,0-1.13-.17-1.45-.41l.16-.36Z"/>
      </g>
    </g>
  </g>
</svg>